<?xml version="1.0" encoding="utf-8"?>
<!-- Generator: Adobe Illustrator 23.0.0, SVG Export Plug-In . SVG Version: 6.00 Build 0)  -->
<svg version="1.1" id="Layer_1" xmlns="http://www.w3.org/2000/svg" xmlns:xlink="http://www.w3.org/1999/xlink" x="0px" y="0px"
	 viewBox="0 0 165 68" style="enable-background:new 0 0 165 68;" xml:space="preserve">
<style type="text/css">
	.st0{fill:#E2001A;}
	.st1{fill:#999A9C;}
</style>
<g>
	<g id="g2642_1_" transform="matrix(0.6919479,0,0,0.6755448,834.26326,856.29134)">
		<path id="path2644_1_" class="st0" d="M-1121.8-1250.4h-12.7v34.4h12.7V-1250.4z"/>
	</g>
	<g id="g2650_1_" transform="matrix(0.6919479,0,0,0.6755448,834.26326,856.29134)">
		<path id="path2652_1_" class="st0" d="M-1205.7-1260.2h12.2l0,18.4l10.2-18.4h14.7l-12.8,21.3l13.2,23h-15.3l-9.9-19.6v19.6h-12.2
			V-1260.2z"/>
	</g>
	<g id="g2654_1_" transform="matrix(0.6919479,0,0,0.6755448,834.26326,856.29134)">
		<path id="path2656_1_" class="st0" d="M-1164.6-1260.2h12.3v33.2h12.3v11.1h-24.6V-1260.2z"/>
	</g>
	<g id="g2658_1_" transform="matrix(0.6919479,0,0,0.6755448,834.26326,856.29134)">
		<path id="path2660_1_" class="st0" d="M-1128.1-1267.6c-4.2,0-7.6,3.3-7.6,7.3s3.4,7.3,7.6,7.3s7.6-3.3,7.6-7.3
			S-1123.9-1267.6-1128.1-1267.6"/>
	</g>
	<g id="g2662_1_" transform="matrix(0.6919479,0,0,0.6755448,834.26326,856.29134)">
		<path id="path2664_1_" class="st0" d="M-1114-1260.2h15.7l11.5,23.4v-23.4h12v44.3h-15.7l-11.6-23.8v23.8h-11.9V-1260.2z"/>
	</g>
	<g id="g2666_1_" transform="matrix(0.6919479,0,0,0.6755448,834.26326,856.29134)">
		<path id="path2668_1_" class="st0" d="M-1030.6-1218.3v-21.5h-12.5v13.1c-3,0.9-13.3,1.9-13.3-11.3c0-10.5,8.6-11.9,12.5-11.9
			c4.2,0,8,0.6,11.5,2.4l2.1-11.3c-2.7-1-5.9-2-13.5-2c-16.1,0-26.5,10.2-26.5,22.7c0,15.1,8.5,23,23.9,23
			C-1037-1215.3-1030.6-1218.3-1030.6-1218.3z"/>
	</g>
	<g id="g2670_1_" transform="matrix(0.6919479,0,0,0.6755448,834.26326,856.29134)">
		<path id="path2672_1_" class="st0" d="M-1024.8-1260.2h26.5v10.3h-13.7v6.2h12.9v9.9h-12.9v7.5h13.7v10.4h-26.5V-1260.2z"/>
	</g>
	<g id="g2674_1_" transform="matrix(0.6919479,0,0,0.6755448,834.26326,856.29134)">
		<path id="path2676_1_" class="st0" d="M-991.9-1260.2h12.1v33.4h12.5v10.9h-24.6V-1260.2z"/>
	</g>
	<g>
		<g>
			<path class="st1" d="M106.3,48.3v7.8c-0.4,0.2-1,0.4-1.7,0.6c-0.7,0.2-1.6,0.3-2.7,0.3c-1.3,0-2.5-0.2-3.5-0.6
				c-1-0.4-1.9-1-2.5-1.7c-0.7-0.7-1.2-1.6-1.6-2.6c-0.3-1-0.5-2.1-0.5-3.3c0-1.2,0.2-2.3,0.5-3.3c0.3-1,0.9-1.9,1.6-2.6
				c0.7-0.7,1.5-1.3,2.5-1.7c1-0.4,2.2-0.6,3.5-0.6c0.9,0,1.8,0.1,2.5,0.2c0.7,0.2,1.2,0.3,1.5,0.4l-0.2,2.6
				c-0.5-0.3-1.1-0.5-1.7-0.7c-0.6-0.2-1.4-0.3-2.1-0.3c-0.8,0-1.5,0.2-2.1,0.5c-0.6,0.3-1.1,0.7-1.6,1.2c-0.4,0.5-0.7,1.1-0.9,1.9
				c-0.2,0.7-0.3,1.5-0.3,2.3c0,0.9,0.1,1.7,0.3,2.4c0.2,0.7,0.5,1.3,0.9,1.8c0.4,0.5,0.9,0.9,1.5,1.2c0.6,0.3,1.3,0.4,2.1,0.4
				c0.4,0,0.7,0,1-0.1c0.3-0.1,0.6-0.1,0.8-0.2v-6H106.3z"/>
			<path class="st1" d="M109.4,46.9c0-0.4,0-0.7,0-1c0-0.3,0-0.6-0.1-0.9h2.7c0,0.3,0,0.7,0.1,1.1c0,0.4,0,0.7,0,1.1h0
				c0.1-0.2,0.2-0.5,0.4-0.8c0.2-0.3,0.4-0.5,0.6-0.8c0.3-0.2,0.6-0.4,0.9-0.6c0.3-0.2,0.8-0.2,1.2-0.2c0.1,0,0.2,0,0.3,0
				c0.1,0,0.2,0,0.2,0v2.6c-0.3-0.1-0.6-0.1-0.8-0.1c-0.3,0-0.6,0-0.9,0.1c-0.3,0.1-0.6,0.3-0.8,0.5c-0.2,0.2-0.4,0.5-0.6,0.9
				c-0.2,0.4-0.2,0.8-0.2,1.4v6.4h-2.9V46.9z"/>
			<path class="st1" d="M127.3,54.7c0,0.4,0,0.7,0,1c0,0.3,0,0.6,0.1,0.9h-2.7c0-0.3,0-0.6-0.1-0.9c0-0.3,0-0.6,0-0.9l-0.1,0l0,0
				c-0.1,0.2-0.3,0.4-0.5,0.7c-0.2,0.2-0.4,0.5-0.6,0.6c-0.3,0.2-0.6,0.4-0.9,0.5c-0.3,0.1-0.8,0.2-1.2,0.2c-0.7,0-1.3-0.1-1.7-0.3
				c-0.5-0.2-0.8-0.5-1.1-0.9c-0.3-0.4-0.5-0.9-0.6-1.4c-0.1-0.5-0.2-1.1-0.2-1.7v-7.6h2.9v7c0,0.9,0.1,1.6,0.4,2
				c0.3,0.4,0.7,0.6,1.3,0.6c0.4,0,0.7-0.1,1-0.2c0.3-0.2,0.5-0.4,0.6-0.6c0.2-0.3,0.3-0.6,0.3-0.9c0.1-0.3,0.1-0.7,0.1-1.1v-6.7
				h2.9V54.7z"/>
			<path class="st1" d="M130,46.9c0-0.4,0-0.8,0-1.2c0-0.3,0-0.6-0.1-0.8h2.7c0,0.2,0.1,0.4,0.1,0.7c0,0.3,0,0.7,0,1.1h0.1
				c0.1-0.2,0.3-0.5,0.4-0.7c0.2-0.2,0.4-0.5,0.7-0.6c0.3-0.2,0.6-0.3,0.9-0.5c0.4-0.1,0.8-0.2,1.2-0.2c0.8,0,1.4,0.2,2,0.5
				c0.5,0.3,1,0.8,1.3,1.3c0.3,0.5,0.6,1.2,0.8,1.9c0.2,0.7,0.2,1.5,0.2,2.3c0,1.9-0.4,3.4-1.1,4.5c-0.7,1.1-1.8,1.6-3.1,1.6
				c-0.4,0-0.8-0.1-1.2-0.2c-0.3-0.1-0.6-0.3-0.9-0.4c-0.3-0.2-0.5-0.4-0.7-0.6c-0.2-0.2-0.3-0.4-0.4-0.7h0v6.6H130V46.9z
				 M133.1,52.4c0.1,0.5,0.2,0.9,0.4,1.2c0.2,0.3,0.4,0.6,0.7,0.8c0.3,0.2,0.6,0.3,1,0.3c0.8,0,1.4-0.4,1.7-1.1
				c0.3-0.7,0.5-1.6,0.5-2.8c0-1.4-0.1-2.4-0.4-3.1c-0.3-0.7-0.9-1-1.7-1c-0.4,0-0.8,0.1-1.1,0.3c-0.3,0.2-0.5,0.5-0.7,0.9
				c-0.2,0.4-0.3,0.8-0.4,1.3c-0.1,0.5-0.1,1-0.1,1.5C133,51.4,133,51.9,133.1,52.4z"/>
			<path class="st1" d="M142.7,46.9c0-0.4,0-0.8,0-1.2c0-0.3,0-0.6-0.1-0.8h2.7c0,0.2,0.1,0.4,0.1,0.7c0,0.3,0,0.7,0,1.1h0.1
				c0.1-0.2,0.3-0.5,0.4-0.7c0.2-0.2,0.4-0.5,0.7-0.6c0.3-0.2,0.6-0.3,0.9-0.5c0.4-0.1,0.8-0.2,1.2-0.2c0.8,0,1.4,0.2,2,0.5
				c0.5,0.3,1,0.8,1.3,1.3c0.3,0.5,0.6,1.2,0.8,1.9c0.2,0.7,0.2,1.5,0.2,2.3c0,1.9-0.4,3.4-1.1,4.5c-0.7,1.1-1.8,1.6-3.1,1.6
				c-0.4,0-0.8-0.1-1.2-0.2c-0.3-0.1-0.6-0.3-0.9-0.4c-0.3-0.2-0.5-0.4-0.7-0.6c-0.2-0.2-0.3-0.4-0.4-0.7h0v6.6h-2.9V46.9z
				 M145.8,52.4c0.1,0.5,0.2,0.9,0.4,1.2c0.2,0.3,0.4,0.6,0.7,0.8c0.3,0.2,0.6,0.3,1,0.3c0.8,0,1.4-0.4,1.7-1.1
				c0.3-0.7,0.5-1.6,0.5-2.8c0-1.4-0.1-2.4-0.4-3.1c-0.3-0.7-0.9-1-1.7-1c-0.4,0-0.8,0.1-1.1,0.3c-0.3,0.2-0.5,0.5-0.7,0.9
				c-0.2,0.4-0.3,0.8-0.4,1.3c-0.1,0.5-0.1,1-0.1,1.5C145.7,51.4,145.7,51.9,145.8,52.4z"/>
			<path class="st1" d="M164.4,56.1c-0.3,0.1-0.8,0.3-1.4,0.5c-0.6,0.2-1.4,0.3-2.3,0.3c-1,0-1.8-0.2-2.5-0.5
				c-0.7-0.3-1.3-0.7-1.8-1.3c-0.5-0.5-0.8-1.2-1-1.9c-0.2-0.7-0.3-1.5-0.3-2.3c0-0.9,0.1-1.7,0.3-2.4c0.2-0.8,0.6-1.4,1-2
				c0.4-0.6,1-1,1.6-1.3c0.6-0.3,1.3-0.5,2.1-0.5c0.7,0,1.3,0.1,1.9,0.3c0.6,0.2,1.1,0.5,1.6,1c0.5,0.5,0.8,1.1,1.1,1.9
				c0.3,0.8,0.4,1.8,0.4,3v0.5h-7.1c0,1,0.2,1.8,0.7,2.4c0.5,0.6,1.3,0.9,2.4,0.9c0.9,0,1.6-0.1,2.1-0.3c0.5-0.2,0.9-0.4,1.1-0.6
				L164.4,56.1z M162.2,49.8c0-2.1-0.7-3.1-2-3.1c-0.4,0-0.7,0.1-1,0.3c-0.3,0.2-0.5,0.4-0.7,0.7c-0.2,0.3-0.3,0.6-0.4,1
				c-0.1,0.4-0.1,0.8-0.1,1.1H162.2z"/>
		</g>
	</g>
</g>
</svg>
