<?xml version="1.0" encoding="UTF-8"?>
<!DOCTYPE svg PUBLIC "-//W3C//DTD SVG 1.1//EN" "http://www.w3.org/Graphics/SVG/1.1/DTD/svg11.dtd">
<svg version="1.2" width="132.03mm" height="99.99mm" viewBox="3851 9800 13203 9999" preserveAspectRatio="xMidYMid" fill-rule="evenodd" stroke-width="28.222" stroke-linejoin="round" xmlns="http://www.w3.org/2000/svg" xmlns:ooo="http://xml.openoffice.org/svg/export" xmlns:xlink="http://www.w3.org/1999/xlink" xmlns:presentation="http://sun.com/xmlns/staroffice/presentation" xmlns:smil="http://www.w3.org/2001/SMIL20/" xmlns:anim="urn:oasis:names:tc:opendocument:xmlns:animation:1.0" xml:space="preserve">
 <defs class="ClipPathGroup">
  <clipPath id="presentation_clip_path" clipPathUnits="userSpaceOnUse">
   <rect x="3851" y="9800" width="13203" height="9999"/>
  </clipPath>
  <clipPath id="presentation_clip_path_shrink" clipPathUnits="userSpaceOnUse">
   <rect x="3864" y="9809" width="13177" height="9980"/>
  </clipPath>
 </defs>
 <defs class="TextShapeIndex">
  <g ooo:slide="id1" ooo:id-list="id3 id4 id5 id6 id7"/>
 </defs>
 <defs class="EmbeddedBulletChars">
  <g id="bullet-char-template-57356" transform="scale(0.00048828125,-0.00048828125)">
   <path d="M 580,1141 L 1163,571 580,0 -4,571 580,1141 Z"/>
  </g>
  <g id="bullet-char-template-57354" transform="scale(0.00048828125,-0.00048828125)">
   <path d="M 8,1128 L 1137,1128 1137,0 8,0 8,1128 Z"/>
  </g>
  <g id="bullet-char-template-10146" transform="scale(0.00048828125,-0.00048828125)">
   <path d="M 174,0 L 602,739 174,1481 1456,739 174,0 Z M 1358,739 L 309,1346 659,739 1358,739 Z"/>
  </g>
  <g id="bullet-char-template-10132" transform="scale(0.00048828125,-0.00048828125)">
   <path d="M 2015,739 L 1276,0 717,0 1260,543 174,543 174,936 1260,936 717,1481 1274,1481 2015,739 Z"/>
  </g>
  <g id="bullet-char-template-10007" transform="scale(0.00048828125,-0.00048828125)">
   <path d="M 0,-2 C -7,14 -16,27 -25,37 L 356,567 C 262,823 215,952 215,954 215,979 228,992 255,992 264,992 276,990 289,987 310,991 331,999 354,1012 L 381,999 492,748 772,1049 836,1024 860,1049 C 881,1039 901,1025 922,1006 886,937 835,863 770,784 769,783 710,716 594,584 L 774,223 C 774,196 753,168 711,139 L 727,119 C 717,90 699,76 672,76 641,76 570,178 457,381 L 164,-76 C 142,-110 111,-127 72,-127 30,-127 9,-110 8,-76 1,-67 -2,-52 -2,-32 -2,-23 -1,-13 0,-2 Z"/>
  </g>
  <g id="bullet-char-template-10004" transform="scale(0.00048828125,-0.00048828125)">
   <path d="M 285,-33 C 182,-33 111,30 74,156 52,228 41,333 41,471 41,549 55,616 82,672 116,743 169,778 240,778 293,778 328,747 346,684 L 369,508 C 377,444 397,411 428,410 L 1163,1116 C 1174,1127 1196,1133 1229,1133 1271,1133 1292,1118 1292,1087 L 1292,965 C 1292,929 1282,901 1262,881 L 442,47 C 390,-6 338,-33 285,-33 Z"/>
  </g>
  <g id="bullet-char-template-9679" transform="scale(0.00048828125,-0.00048828125)">
   <path d="M 813,0 C 632,0 489,54 383,161 276,268 223,411 223,592 223,773 276,916 383,1023 489,1130 632,1184 813,1184 992,1184 1136,1130 1245,1023 1353,916 1407,772 1407,592 1407,412 1353,268 1245,161 1136,54 992,0 813,0 Z"/>
  </g>
  <g id="bullet-char-template-8226" transform="scale(0.00048828125,-0.00048828125)">
   <path d="M 346,457 C 273,457 209,483 155,535 101,586 74,649 74,723 74,796 101,859 155,911 209,963 273,989 346,989 419,989 480,963 531,910 582,859 608,796 608,723 608,648 583,586 532,535 482,483 420,457 346,457 Z"/>
  </g>
  <g id="bullet-char-template-8211" transform="scale(0.00048828125,-0.00048828125)">
   <path d="M -4,459 L 1135,459 1135,606 -4,606 -4,459 Z"/>
  </g>
  <g id="bullet-char-template-61548" transform="scale(0.00048828125,-0.00048828125)">
   <path d="M 173,740 C 173,903 231,1043 346,1159 462,1274 601,1332 765,1332 928,1332 1067,1274 1183,1159 1299,1043 1357,903 1357,740 1357,577 1299,437 1183,322 1067,206 928,148 765,148 601,148 462,206 346,322 231,437 173,577 173,740 Z"/>
  </g>
 </defs>
 <defs class="TextEmbeddedBitmaps"/>
 <g class="SlideGroup">
  <g>
   <g id="container-id1">
    <g id="id1" class="Slide" clip-path="url(#presentation_clip_path)">
     <g class="Page">
      <g class="Group">
       <g class="com.sun.star.drawing.ClosedBezierShape">
        <g id="id3">
         <rect class="BoundingBox" stroke="none" fill="none" x="6131" y="9800" width="4281" height="4678"/>
         <path fill="rgb(236,0,140)" stroke="none" d="M 9748,13234 L 9748,13234 C 9748,13415 9687,13568 9567,13687 9446,13808 9272,13869 9045,13876 8817,13869 8643,13808 8522,13687 8402,13568 8336,13415 8336,13234 8336,12503 8336,11772 8336,11042 8336,10862 8402,10708 8522,10587 8643,10468 8817,10407 9045,10400 9272,10407 9446,10468 9567,10587 9687,10708 9748,10862 9748,11042 9748,11772 9748,12503 9748,13234 Z M 10411,13187 L 10411,13187 C 10411,12487 10411,11788 10411,11089 10403,10700 10283,10387 10043,10155 9801,9927 9473,9807 9045,9800 8617,9807 8281,9927 8041,10155 7799,10387 7679,10700 7672,11089 7672,11788 7672,12487 7672,13187 7679,13575 7799,13889 8041,14122 8281,14350 8617,14470 9045,14477 9473,14470 9801,14350 10043,14122 10283,13889 10403,13575 10411,13187 Z M 6808,14363 L 6808,14363 C 6808,12879 6808,11397 6808,9914 6685,9914 6562,9914 6440,9914 6440,9994 6420,10067 6372,10128 6326,10194 6245,10227 6132,10227 6132,11606 6132,12984 6132,14363 6357,14363 6583,14363 6808,14363 Z"/>
        </g>
       </g>
       <g class="com.sun.star.drawing.ClosedBezierShape">
        <g id="id4">
         <rect class="BoundingBox" stroke="none" fill="none" x="11153" y="9800" width="2740" height="4678"/>
         <path fill="rgb(236,0,140)" stroke="none" d="M 13228,13234 L 13228,13234 C 13228,13415 13168,13568 13048,13687 12927,13808 12753,13869 12526,13876 12299,13869 12125,13807 12004,13687 11885,13567 11816,13415 11816,13234 11816,12503 11816,11772 11816,11042 11816,10862 11884,10708 12004,10587 12124,10468 12299,10407 12526,10400 12753,10407 12927,10468 13048,10587 13168,10708 13228,10862 13228,11042 13228,11772 13228,12503 13228,13234 Z M 13891,13187 L 13891,13187 C 13891,12487 13891,11788 13891,11089 13885,10700 13764,10387 13522,10155 13282,9927 12955,9807 12526,9800 12098,9807 11762,9927 11521,10155 11281,10387 11160,10700 11153,11089 11153,11788 11153,12487 11153,13187 11160,13575 11281,13889 11521,14122 11762,14350 12098,14470 12526,14477 12955,14470 13282,14350 13522,14122 13764,13889 13885,13575 13891,13187 Z"/>
        </g>
       </g>
       <g class="com.sun.star.drawing.ClosedBezierShape">
        <g id="id5">
         <rect class="BoundingBox" stroke="none" fill="none" x="3850" y="15236" width="6323" height="4452"/>
         <path fill="rgb(236,0,140)" stroke="none" d="M 9020,17948 L 9020,17948 C 8735,17948 8449,17948 8164,17948 8304,17365 8444,16782 8585,16197 8730,16782 8874,17365 9020,17948 Z M 10172,19686 L 10172,19686 C 9774,18202 9377,16719 8980,15236 8731,15236 8480,15236 8230,15236 7837,16719 7445,18202 7053,19686 7284,19686 7515,19686 7748,19686 7839,19302 7930,18920 8023,18537 8404,18537 8784,18537 9167,18537 9263,18920 9359,19302 9456,19686 9694,19686 9932,19686 10172,19686 Z M 5980,18310 L 5980,18310 C 5980,18543 5920,18723 5806,18851 5685,18984 5497,19051 5250,19051 5020,19051 4790,19051 4560,19051 4560,17991 4560,16931 4560,15870 4790,15870 5020,15870 5250,15870 5497,15870 5685,15937 5806,16070 5920,16197 5980,16384 5980,16619 5980,17183 5980,17746 5980,18310 Z M 6690,16545 L 6690,16545 C 6690,16177 6583,15863 6354,15616 6134,15376 5786,15241 5311,15236 4824,15236 4338,15236 3851,15236 3851,16719 3851,18202 3851,19686 4338,19686 4824,19686 5311,19686 5786,19679 6134,19546 6354,19298 6583,19058 6690,18743 6690,18376 6690,17766 6690,17156 6690,16545 Z"/>
        </g>
       </g>
       <g class="com.sun.star.drawing.ClosedBezierShape">
        <g id="id6">
         <rect class="BoundingBox" stroke="none" fill="none" x="9983" y="15130" width="6196" height="4671"/>
         <path fill="rgb(236,0,140)" stroke="none" d="M 15916,17728 L 15916,17728 C 15742,17527 15460,17340 15072,17160 14697,16987 14444,16832 14309,16712 14175,16592 14114,16445 14121,16277 14121,16117 14175,15984 14275,15883 14375,15776 14529,15730 14731,15724 14985,15730 15173,15803 15287,15950 15401,16091 15455,16271 15455,16479 15455,16503 15455,16528 15455,16552 15682,16552 15909,16552 16137,16552 16137,16494 16137,16437 16137,16379 16131,16011 16010,15710 15761,15483 15514,15256 15178,15136 14750,15130 14321,15136 13994,15256 13759,15483 13532,15716 13411,16004 13411,16344 13418,16579 13471,16779 13592,16946 13706,17112 13853,17253 14034,17367 14215,17487 14409,17595 14609,17682 14938,17829 15167,17968 15287,18095 15407,18223 15467,18376 15460,18556 15460,18744 15401,18897 15287,19018 15173,19132 15005,19191 14776,19197 14536,19197 14362,19132 14234,19004 14114,18877 14053,18676 14053,18410 14053,18385 14053,18361 14053,18337 13820,18337 13586,18337 13351,18337 13351,18408 13351,18478 13351,18550 13357,18918 13484,19211 13739,19445 13987,19673 14328,19793 14757,19799 15185,19793 15533,19666 15788,19418 16042,19172 16171,18858 16177,18476 16177,18176 16097,17929 15916,17728 Z M 13203,15236 L 13203,15236 C 12966,15236 12727,15236 12487,15236 12199,15915 11911,16594 11623,17274 11337,16594 11052,15915 10766,15236 10505,15236 10245,15236 9984,15236 10408,16118 10831,17001 11255,17882 11255,18483 11255,19084 11255,19686 11492,19686 11729,19686 11965,19686 11965,19084 11965,18483 11965,17882 12378,17001 12791,16118 13203,15236 Z"/>
        </g>
       </g>
       <g class="com.sun.star.drawing.ClosedBezierShape">
        <g id="id7">
         <rect class="BoundingBox" stroke="none" fill="none" x="16157" y="14547" width="899" height="898"/>
         <path fill="rgb(236,0,140)" stroke="none" d="M 16679,14916 L 16679,14916 C 16679,14953 16660,14972 16622,14972 16598,14972 16575,14972 16551,14972 16551,14934 16551,14896 16551,14858 16578,14858 16603,14858 16630,14858 16648,14858 16661,14863 16669,14872 16677,14881 16679,14893 16679,14907 16679,14910 16679,14913 16679,14916 Z M 16781,15193 L 16781,15193 C 16781,15175 16781,15156 16781,15137 16775,15137 16769,15136 16765,15134 16761,15132 16760,15126 16760,15120 16760,15108 16760,15095 16760,15082 16760,15062 16755,15043 16742,15028 16733,15011 16714,15001 16690,14998 16714,14994 16733,14984 16741,14969 16752,14955 16757,14935 16757,14911 16757,14910 16757,14909 16757,14908 16757,14875 16748,14849 16731,14828 16711,14810 16681,14799 16637,14799 16583,14799 16528,14799 16473,14799 16473,14928 16473,15057 16473,15187 16499,15187 16525,15187 16551,15187 16551,15133 16551,15079 16551,15025 16577,15025 16602,15025 16628,15025 16646,15025 16661,15032 16669,15041 16677,15051 16682,15065 16682,15084 16682,15098 16682,15112 16682,15126 16682,15151 16687,15168 16699,15178 16711,15189 16733,15193 16761,15193 16768,15193 16774,15193 16781,15193 Z M 16934,15190 L 16934,15190 C 16904,15246 16858,15292 16802,15326 16746,15360 16681,15377 16604,15379 16530,15377 16463,15360 16407,15326 16350,15292 16307,15246 16276,15190 16243,15132 16227,15067 16227,14996 16227,14924 16243,14859 16276,14802 16307,14744 16350,14699 16407,14665 16462,14629 16530,14614 16604,14612 16681,14614 16746,14629 16802,14665 16858,14699 16904,14744 16934,14802 16967,14859 16983,14924 16983,14996 16983,15067 16967,15132 16934,15190 Z M 16995,14769 L 16995,14769 C 16956,14703 16904,14649 16836,14610 16769,14570 16691,14549 16604,14548 16518,14549 16441,14570 16374,14610 16307,14649 16254,14703 16215,14769 16177,14837 16158,14913 16157,14996 16158,15079 16177,15154 16215,15221 16254,15287 16307,15343 16374,15381 16441,15421 16518,15442 16604,15443 16691,15442 16769,15421 16836,15381 16904,15343 16956,15287 16995,15221 17033,15154 17052,15079 17054,14996 17052,14913 17033,14837 16995,14769 Z"/>
        </g>
       </g>
      </g>
     </g>
    </g>
   </g>
  </g>
 </g>
</svg>