<?xml version="1.0" encoding="UTF-8"?> <!-- Generator: Adobe Illustrator 16.0.3, SVG Export Plug-In . SVG Version: 6.00 Build 0) --> <svg xmlns="http://www.w3.org/2000/svg" xmlns:xlink="http://www.w3.org/1999/xlink" version="1.1" x="0px" y="0px" width="569px" height="100px" viewBox="0 0 569 100" xml:space="preserve"> <g id="Ebene_1"> <g> <polygon fill="#2B87BF" points="26.291,87.263 41.635,17.139 10.553,17.139 "></polygon> <polygon fill="#4E70B1" points="53.628,17.139 37.997,87.263 69.079,87.263 "></polygon> <polygon fill="#193F7C" points="80.784,87.263 96.417,17.139 65.044,17.139 "></polygon> <polygon fill="#18233D" points="108.12,17.139 92.489,87.263 123.86,87.263 "></polygon> <g> <g> <defs> <rect id="SVGID_1_" y="-8" width="600" height="131.711"></rect> </defs> <clipPath id="SVGID_2_"> <use xlink:href="#SVGID_1_" overflow="visible"></use> </clipPath> <path clip-path="url(#SVGID_2_)" fill="#1A161A" d="M229.101,87.263h-22.546l-6.806-30.793c-0.29-1.442-0.866-4.035-1.441-7.672 c-0.576-4.036-1.153-7.203-1.44-9.69c-0.289,1.911-0.576,4.502-1.153,7.673c-0.576,3.169-1.152,5.941-1.729,8.537 c-0.576,2.592-2.88,13.144-7.095,31.765h-22.546l-17.362-70.521h18.514l7.672,35.297c1.729,8.068,2.881,14.01,3.745,18.908 c0.288-3.458,1.152-7.778,2.306-13.435c1.045-5.761,1.91-10.265,3.061-14.01l6.338-26.76h17.647l6.052,26.76 c1.044,4.323,1.908,9.113,3.061,14.876c0.864,5.654,1.729,9.689,2.306,12.569c0.288-3.746,1.729-9.687,3.458-18.621 l7.958-35.585h18.513L229.101,87.263z"></path> </g> <g> <defs> <rect id="SVGID_3_" y="-8" width="600" height="131.711"></rect> </defs> <clipPath id="SVGID_4_"> <use xlink:href="#SVGID_3_" overflow="visible"></use> </clipPath> <path clip-path="url(#SVGID_4_)" fill="#1A161A" d="M254.24,19.05c0-2.775,0.865-4.793,2.199-6.233 c1.726-1.44,4.321-2.018,7.778-2.018c3.351,0,5.942,0.577,7.67,2.018c1.73,1.44,2.307,3.458,2.307,6.233 c0,5.472-3.459,8.354-10.267,8.354C257.589,27.404,254.24,24.521,254.24,19.05 M273.617,87.263h-18.801V32.771h18.801V87.263z"></path> </g> <g> <defs> <rect id="SVGID_5_" y="-8" width="600" height="131.711"></rect> </defs> <clipPath id="SVGID_6_"> <use xlink:href="#SVGID_5_" overflow="visible"></use> </clipPath> <rect x="286.763" y="12.241" clip-path="url(#SVGID_6_)" fill="#1A161A" width="18.752" height="75.021"></rect> </g> <g> <defs> <rect id="SVGID_7_" y="-8" width="600" height="131.711"></rect> </defs> <clipPath id="SVGID_8_"> <use xlink:href="#SVGID_7_" overflow="visible"></use> </clipPath> <path clip-path="url(#SVGID_8_)" fill="#1A161A" d="M335.602,88.415c-4.032,0-7.494-1.152-10.375-3.458 c-2.879-2.304-5.184-5.365-6.914-9.689c-1.729-4.21-2.089-9.398-2.089-15.053c0-8.825,1.515-16.027,5.367-20.816 c3.636-4.9,8.428-7.492,14.767-7.492c3.059,0,5.764,0.575,8.069,2.017c2.306,1.152,4.211,3.458,6.12,6.336h0.395 c-0.573-4.319-0.972-8.642-0.972-12.856V12.529h19.018v75.13h-14.406l-4.034-6.915h-0.577 C346.91,85.931,342.121,88.415,335.602,88.415 M343.453,73.541c3.279,0,5.185-0.758,6.339-2.774 c1.149-2.015,1.909-4.898,1.909-8.825v-1.44c0-4.897-0.576-8.355-1.909-10.264c-1.333-2.018-3.639-3.171-6.52-3.171 c-2.7,0-4.43,1.153-5.763,3.458c-1.33,2.197-1.908,5.654-1.908,9.977c0,4.214,0.578,7.385,1.908,9.69 C338.843,72.21,340.572,73.541,343.453,73.541"></path> </g> <g> <defs> <rect id="SVGID_9_" y="-8" width="600" height="131.711"></rect> </defs> <clipPath id="SVGID_10_"> <use xlink:href="#SVGID_9_" overflow="visible"></use> </clipPath> <path clip-path="url(#SVGID_10_)" fill="#1A161A" d="M408.499,88.415c-9.003,0-16.099-2.304-21.105-7.092 c-5.188-4.819-7.671-11.71-7.671-20.821c0-9.112,2.304-16.314,6.914-21.104c4.611-4.9,11.309-7.492,19.955-7.492 c8.247,0,14.586,2.017,18.981,6.34c4.609,4.211,6.732,10.551,6.732,18.511v8.247h-33.784c0,3.171,1.154,5.475,3.459,7.206 c1.908,1.619,4.789,2.483,8.646,2.483c3.451,0,6.118-0.287,9.001-0.865c2.881-0.576,5.762-1.619,9.222-3.062V84.38 c-2.882,1.551-5.942,2.703-9.222,3.279C416.744,88.238,413.11,88.415,408.499,88.415 M407.345,44.475 c-2.306,0-4.213,0.578-5.543,2.017c-1.553,1.44-2.306,3.746-2.702,6.52h16.314c0-2.487-0.758-4.792-2.304-6.231 C411.775,45.34,410.047,44.475,407.345,44.475"></path> </g> <g> <defs> <rect id="SVGID_11_" y="-8" width="600" height="131.711"></rect> </defs> <clipPath id="SVGID_12_"> <use xlink:href="#SVGID_11_" overflow="visible"></use> </clipPath> <rect x="438.825" y="53.299" clip-path="url(#SVGID_12_)" fill="#1A161A" width="27.442" height="15.163"></rect> </g> <g> <defs> <rect id="SVGID_13_" y="-8" width="600" height="131.711"></rect> </defs> <clipPath id="SVGID_14_"> <use xlink:href="#SVGID_13_" overflow="visible"></use> </clipPath> <rect x="475.851" y="16.852" clip-path="url(#SVGID_14_)" fill="#1A161A" width="19.195" height="70.411"></rect> </g> <g> <defs> <rect id="SVGID_15_" y="-8" width="600" height="131.711"></rect> </defs> <clipPath id="SVGID_16_"> <use xlink:href="#SVGID_15_" overflow="visible"></use> </clipPath> <polygon clip-path="url(#SVGID_16_)" fill="#1A161A" points="541.293,87.263 522.488,87.263 522.488,32.192 505.205,32.192 505.205,16.852 558.541,16.852 558.541,32.481 541.293,32.481 "></polygon> </g> </g> </g> </g> <g id="Hilfslinien"> </g> </svg> 