<svg id="Ebene_1" data-name="Ebene 1" xmlns="http://www.w3.org/2000/svg" viewBox="0 0 318.1042 135.9316"><path d="M386.3833,259.7051a9.026,9.026,0,0,0-8.2178-4.3613c-4.4648,0-9.8232,2.1855-14.1284,3.9409a55.7967,55.7967,0,0,1-9.5659,3.2163,14.9794,14.9794,0,0,1-3.1943.3862,6.3023,6.3023,0,0,1-6.3706-4.2734.25.25,0,0,0-.4751.0391L333.6255,306.294a136.2543,136.2543,0,0,1-4.11,14.59,20.0026,20.0026,0,0,1-5.269,8.3018c-2.1475,2.1484-5.2114,3.2373-9.1074,3.2373-3.9575,0-6.9165-.999-8.794-2.9707-1.9126-2.0069-2.7817-5.1016-2.5835-9.1992l.1626-3.1514a46.89,46.89,0,0,1,.646-5.8916l.08-1.7764a.2492.2492,0,0,0-.08-.1953.2525.2525,0,0,0-.2011-.0644l-39.56,5.0849a.25.25,0,0,0-.2139.2022,85.359,85.359,0,0,0-1.4585,10.6132c-.41,10.087,1.001,17.8936,4.3115,23.8672a30.515,30.515,0,0,0,13.1875,13.0215,50.6622,50.6622,0,0,0,16.3081,5.0283,152.8412,152.8412,0,0,0,17.9517.9707c16.2651,0,29.0581-3.6855,38.0225-10.9541,8.91-7.2089,15.92-21.4072,20.8364-42.205a15.527,15.527,0,0,1,.9678-3.3077l11.6933-51.601A.2513.2513,0,0,0,386.3833,259.7051Z" transform="translate(-263.0677 -232.0303)" style="fill:#9c9e9f"/><path d="M392.9282,236.4942a9.0339,9.0339,0,0,0-8.2812-4.4639c-4.4219,0-9.6309,2.1035-14.2271,3.9595a55.3715,55.3715,0,0,1-9.4858,3.2173,15.0814,15.0814,0,0,1-3.211.3881h0a6.3864,6.3864,0,0,1-6.3575-4.12.2445.2445,0,0,0-.25-.1479.25.25,0,0,0-.2207.1894l-3.2963,13.502c.6015,4.5146,2.666,6.71,6.3115,6.709a12.9577,12.9577,0,0,0,2.5444-.2808,54.2454,54.2454,0,0,0,8.251-2.772l.9966-.3906c4.7832-1.94,10.2046-4.1392,14.917-4.1392a10.0377,10.0377,0,0,1,8.2089,3.6641.2535.2535,0,0,0,.2486.084.25.25,0,0,0,.1865-.1841l3.6963-15.0234A.2487.2487,0,0,0,392.9282,236.4942Z" transform="translate(-263.0677 -232.0303)" style="fill:#076aae"/><path d="M461.0762,233.5772l-12.24,57.1679H428.0283l2.0156-8.7128-.288-.2159c-5.9756,6.8409-13.3916,10.2959-22.1758,10.2959-5.2559,0-9.2158-1.3672-11.8076-4.0312a13.4358,13.4358,0,0,1-3.96-9.6485c0-2.5195.792-7.2,2.3037-14.2558l6.6963-30.6H422.916l-6.0478,27.9355c-.9366,4.1035-1.3682,6.48-1.5118,7.127a11.9189,11.9189,0,0,0-.2168,2.4492v.1435c0,3.0967,1.4405,4.6807,4.2491,4.6807q4.9673,0,8.64-4.5371c2.4483-3.0234,4.2481-7.3437,5.4717-13.0312l5.4-24.7676Z" transform="translate(-263.0677 -232.0303)" style="fill:#9c9e9f;fill-rule:evenodd"/><path d="M517.9561,234.0088l-8.1358,16.92a18.1972,18.1972,0,0,0-4.5361-.5761,13.0252,13.0252,0,0,0-10.2959,4.5351c-2.6641,3.0254-4.68,7.8487-6.12,14.4727l-4.5362,21.3847H462.2285l12.2393-57.1679h20.5927l-2.52,11.2314.2159.2158q5.1855-7.56,9.0722-10.1523a15.0151,15.0151,0,0,1,8.5684-2.5918A19.6269,19.6269,0,0,1,517.9561,234.0088Z" transform="translate(-263.0677 -232.0303)" style="fill:#9c9e9f;fill-rule:evenodd"/><path d="M581.1719,248.8408c0-5.4-2.0156-9.5039-5.9756-12.3125-3.8877-2.88-11.5918-4.248-22.8955-4.248-2.0166,0-3.8887.0723-5.6885.1445-7.1279.5039-12.6006,1.8711-16.3437,4.2481a19.6831,19.6831,0,0,0-9.1446,12.6l20.52,2.16c1.2237-2.52,2.5918-4.248,4.1758-5.04a7.9992,7.9992,0,0,1,.792-.4326,16.3024,16.3024,0,0,1,5.3281-.791,11.3012,11.3012,0,0,1,5.8321,1.2949,3.9836,3.9836,0,0,1,2.2314,3.457,23.5619,23.5619,0,0,1-.6475,3.8877,93.7464,93.7464,0,0,1-12.7441,1.9444H546.54a144.6129,144.6129,0,0,0-16.9912,2.5195,22.5592,22.5592,0,0,0-10.5127,5.4c-2.88,2.664-4.248,6.5508-4.248,11.5918a16.7867,16.7867,0,0,0,4.7519,11.8086c3.169,3.31,8.4248,5.039,15.6241,5.039a27.1016,27.1016,0,0,0,11.4482-2.5195,32.5917,32.5917,0,0,0,7.92-5.3281,29.5111,29.5111,0,0,0,.792,6.48h21.5283a23.9361,23.9361,0,0,1-1.44-7.9209c0-3.0244.9356-8.4951,2.8086-16.2714C580.1641,258.3448,581.1719,252.4405,581.1719,248.8408Zm-29.8076,27.9356a16.4464,16.4464,0,0,1-4.752,2.8086,11.6975,11.6975,0,0,1-3.5283.5762,7.4716,7.4716,0,0,1-4.8242-1.584,5.3423,5.3423,0,0,1-1.9434-4.32,5.71,5.71,0,0,1,2.6641-4.6084c1.08-.792,3.6-1.6563,7.6318-2.5205,2.7354-.6475,6.1924-1.295,10.2959-1.9434C555.9,270.6573,554.1,274.544,551.3643,276.7764Z" transform="translate(-263.0677 -232.0303)" style="fill:#9c9e9f;fill-rule:evenodd"/><polygon points="128.643 75.593 137.934 75.593 131.127 95.96 140.509 95.96 147.317 75.593 157.07 75.593 159.184 68.97 130.759 68.97 128.643 75.593" style="fill:#f08a04;fill-rule:evenodd"/><polygon points="185.413 78.49 175.385 78.49 178.145 68.97 168.854 68.97 161.126 95.96 170.509 95.96 173.546 85.03 183.666 85.03 180.536 95.96 189.829 95.96 197.555 68.97 188.264 68.97 185.413 78.49" style="fill:#f08a04;fill-rule:evenodd"/><polygon points="200.563 95.96 226.321 95.96 227.794 89.833 211.327 89.833 212.615 84.534 227.241 84.534 228.621 79.069 213.995 79.069 215.006 74.764 230.277 74.764 231.657 68.97 207.094 68.97 200.563 95.96" style="fill:#f08a04;fill-rule:evenodd"/><path d="M529.0664,313.666a7.9886,7.9886,0,0,0,2.1152-5.5468,7.0485,7.0485,0,0,0-2.207-5.0508c-1.38-1.4053-3.4961-2.0684-6.4394-2.0684h-17.11l-5.7969,26.99h9.292l2.3008-10.93h.5518a4.0322,4.0322,0,0,1,2.0244.497c.5508.4141,1.3789,1.7383,2.5742,4.0577.3682.6621.6445,1.3252,1.0117,1.9863.7363,1.5723,1.3809,3.0625,2.0244,4.3887H529.25c-2.76-6.127-5.15-9.9346-6.99-11.3428C525.3877,316.2324,527.6855,315.2383,529.0664,313.666Zm-7.3594-3.3115a3.1651,3.1651,0,0,1-1.84,1.2422,13.14,13.14,0,0,1-2.4844.332c-.92,0-2.0234.083-3.22.083h-1.8389l1.1953-5.5478h4.6914c1.7481,0,2.8516.165,3.3125.5791a1.8978,1.8978,0,0,1,.8282,1.6562A2.6934,2.6934,0,0,1,521.707,310.3545Z" transform="translate(-263.0677 -232.0303)" style="fill:#f08a04;fill-rule:evenodd"/><polygon points="301.817 69.042 293.593 86.077 293.5 86.077 290.935 69.042 279.497 69.042 275.186 95.872 282.998 95.872 285.733 75.378 285.826 75.378 288.764 95.872 295.646 95.872 305.262 75.378 305.356 75.378 301.411 95.872 309.223 95.872 313.628 69.042 301.817 69.042" style="fill:#f08a04;fill-rule:evenodd"/></svg>